<svg xmlns="http://www.w3.org/2000/svg" viewBox="0 0 100 100" width="100" height="100">
  <defs>
    <linearGradient id="aa" x1="0" y1="0" x2="1" y2="1">
      <stop offset="0" stop-color="#60a5fa"/>
      <stop offset="1" stop-color="#34d399"/>
    </linearGradient>
  </defs>
  <rect width="100" height="100" rx="22" fill="#14161a"/>
  <g fill="url(#aa)">
    <!-- row 0 -->
    <rect x="19.5" y="28.5" width="7" height="7" rx="1.5"/>
    <rect x="28.5" y="28.5" width="7" height="7" rx="1.5"/>
    <rect x="64.5" y="28.5" width="7" height="7" rx="1.5"/>
    <rect x="73.5" y="28.5" width="7" height="7" rx="1.5"/>
    <!-- row 1 -->
    <rect x="10.5" y="37.5" width="7" height="7" rx="1.5"/>
    <rect x="37.5" y="37.5" width="7" height="7" rx="1.5"/>
    <rect x="55.5" y="37.5" width="7" height="7" rx="1.5"/>
    <rect x="82.5" y="37.5" width="7" height="7" rx="1.5"/>
    <!-- row 2 -->
    <rect x="10.5" y="46.5" width="7" height="7" rx="1.5"/>
    <rect x="19.5" y="46.5" width="7" height="7" rx="1.5"/>
    <rect x="28.5" y="46.5" width="7" height="7" rx="1.5"/>
    <rect x="37.5" y="46.5" width="7" height="7" rx="1.5"/>
    <rect x="55.5" y="46.5" width="7" height="7" rx="1.5"/>
    <rect x="64.5" y="46.5" width="7" height="7" rx="1.5"/>
    <rect x="73.5" y="46.5" width="7" height="7" rx="1.5"/>
    <rect x="82.5" y="46.5" width="7" height="7" rx="1.5"/>
    <!-- row 3 -->
    <rect x="10.5" y="55.5" width="7" height="7" rx="1.5"/>
    <rect x="37.5" y="55.5" width="7" height="7" rx="1.5"/>
    <rect x="55.5" y="55.5" width="7" height="7" rx="1.5"/>
    <rect x="82.5" y="55.5" width="7" height="7" rx="1.5"/>
    <!-- row 4 -->
    <rect x="10.5" y="64.5" width="7" height="7" rx="1.5"/>
    <rect x="37.5" y="64.5" width="7" height="7" rx="1.5"/>
    <rect x="55.5" y="64.5" width="7" height="7" rx="1.5"/>
    <rect x="82.5" y="64.5" width="7" height="7" rx="1.5"/>
  </g>
</svg>
